<svg xmlns="http://www.w3.org/2000/svg" viewBox="0 0 368.014 368"><defs/><path d="M360.008 224.008h-88v-48h56c3.031 0 5.8-1.715 7.16-4.426l32-64a8 8 0 00-3.578-10.734c-3.961-1.985-8.758-.368-10.735 3.574l-29.792 59.586h-51.055v-24c0-19.313-13.77-35.473-32-39.192V72.008c0-17.235-11.016-31.817-26.32-37.434 6.343-7.086 10.32-16.336 10.32-26.566a8 8 0 00-16 0c0 13.23-10.77 24-24 24-13.235 0-24-10.77-24-24a8 8 0 00-16 0c0 10.23 3.976 19.48 10.32 26.566-15.305 5.617-26.32 20.2-26.32 37.434v24.808c-18.235 3.72-32 19.871-32 39.192v24H44.949L15.16 100.43a8.002 8.002 0 00-14.312 7.16l32 64a8.02 8.02 0 007.16 4.418h56v48h-88a8 8 0 000 16h88v40c0 2.703.168 5.36.406 8H40.008a8.01 8.01 0 00-7.16 4.422l-32 64a8.006 8.006 0 003.574 10.738 8.101 8.101 0 003.578.84 8.012 8.012 0 007.168-4.426l29.781-59.574h54.465c10.48 36.879 44.395 64 84.594 64 40.199 0 74.101-27.121 84.59-64h54.465l29.792 59.574a7.983 7.983 0 007.16 4.426 8.04 8.04 0 003.567-.84c3.953-1.977 5.55-6.785 3.578-10.738l-32-64a7.989 7.989 0 00-7.152-4.422h-56.41c.242-2.64.41-5.297.41-8v-40h88c4.414 0 8-3.586 8-8 0-4.418-3.586-8-8-8zm-216-152c0-13.235 10.765-24 24-24h32c13.23 0 24 10.765 24 24v24h-80zm-8 40h96c13.23 0 24 10.765 24 24v24h-40c-13.074 0-24.696 6.304-32 16.023-7.305-9.719-18.93-16.023-32-16.023h-40v-24c0-13.235 10.765-24 24-24zm56 239.527v-87.527a8 8 0 00-16 0v87.527c-35.946-4-64-34.535-64-71.527v-104h40c13.23 0 24 10.765 24 24 0 4.414 3.582 8 8 8 4.414 0 8-3.586 8-8 0-13.235 10.765-24 24-24h40v104c0 36.992-28.059 67.527-64 71.527zm0 0"/></svg>