<svg xmlns="http://www.w3.org/2000/svg" fill="none" viewBox="0 0 9 8"><defs/><path fill="#E1D5B8" fill-rule="evenodd" d="M8.504 3.87c-.406 1.87-2.38 3.288-4.755 3.288-.342 0-.677-.03-.999-.086.654.57 1.612.928 2.68.928.586 0 1.14-.109 1.63-.301.155-.062.552.03.945.153.404.125.816-.252.732-.665-.072-.354-.113-.693-.043-.815A2.2 2.2 0 009 5.262c0-.508-.181-.984-.496-1.392z" clip-rule="evenodd"/><path fill="#E1D5B8" d="M7.875 3.274c0 1.808-1.763 3.274-3.938 3.274a4.6 4.6 0 01-1.657-.303c-.19-.073-.746.052-1.262.199-.408.116-.804-.285-.696-.695.111-.424.187-.854.092-1.011A2.822 2.822 0 010 3.274C0 1.466 1.763 0 3.938 0c2.174 0 3.937 1.466 3.937 3.274z"/></svg>