<svg xmlns="http://www.w3.org/2000/svg" fill="none" viewBox="0 0 5 11"><defs/><path fill="#E1D5B8" d="M3.23.844c.256 0 .463.092.623.276.16.176.24.4.24.672 0 .288-.091.532-.276.732a.858.858 0 01-.66.288.856.856 0 01-.647-.264.944.944 0 01-.24-.66c0-.28.095-.524.288-.732.2-.208.424-.312.671-.312zm-.42 3.024c.4 0 .683.12.852.36.175.24.264.584.264 1.032 0 .24-.033.604-.097 1.092-.064.48-.104.788-.12.924-.016.104-.047.336-.095.696a6.439 6.439 0 00-.072.732c0 .208.06.312.18.312.216 0 .411-.316.587-.948l.648.192a2.72 2.72 0 01-.311.828c-.16.288-.369.536-.625.744-.256.2-.551.3-.887.3-.425 0-.724-.112-.9-.336-.168-.224-.252-.564-.252-1.02 0-.36.072-.996.215-1.908.12-.784.18-1.308.18-1.572 0-.208-.063-.312-.191-.312-.208 0-.4.316-.577.948L.962 5.74a2.71 2.71 0 01.312-.816c.167-.296.38-.544.635-.744a1.42 1.42 0 01.9-.312z"/></svg>